<svg width="70" height="70" viewBox="0 0 70 70" fill="none" xmlns="http://www.w3.org/2000/svg">
<circle cx="35" cy="35" r="35" fill="#E2F4F0"/>
<path d="M25.1857 20.2241C31.7162 19.6564 38.2836 19.6564 44.8141 20.2241L47.9605 20.4976C50.055 20.6797 51.8489 21.929 52.7784 23.716C52.8973 23.9446 52.8081 24.2214 52.589 24.3571L39.535 32.4382C36.7352 34.1713 33.205 34.2077 30.3701 32.5326L17.2288 24.7673C17.0165 24.6418 16.9191 24.3835 17.0148 24.1563C17.8651 22.1363 19.7768 20.6943 22.0394 20.4976L25.1857 20.2241Z" fill="#708D86"/>
<path d="M17.0041 28.2642C16.6791 28.0722 16.2646 28.2789 16.2267 28.6544C15.6981 33.8953 15.826 39.1858 16.6105 44.4027C17.0241 47.1529 19.2687 49.2613 22.0394 49.5022L25.1857 49.7757C31.7162 50.3434 38.2837 50.3434 44.8141 49.7757L47.9605 49.5022C50.7312 49.2613 52.9758 47.1529 53.3894 44.4027C54.1967 39.0338 54.3087 33.5869 53.7253 28.1963C53.6844 27.8182 53.2627 27.6153 52.9393 27.8156L41.1798 35.0952C37.3919 37.4401 32.6157 37.4893 28.7804 35.223L17.0041 28.2642Z" fill="#708D86"/>
</svg>
