<svg width="70" height="70" viewBox="0 0 70 70" fill="none" xmlns="http://www.w3.org/2000/svg">
<circle cx="35" cy="35" r="35" fill="#E2F4F0"/>
<path d="M21.9062 15.5156C19.7057 15.5156 17.9219 17.2995 17.9219 19.5C17.9219 21.7005 19.7057 23.4844 21.9062 23.4844C24.1068 23.4844 25.8906 21.7005 25.8906 19.5C25.8906 17.2995 24.1068 15.5156 21.9062 15.5156Z" fill="#708D86"/>
<path d="M18.1562 26.7656C18.0268 26.7656 17.9219 26.8706 17.9219 27V51.375C17.9219 51.5044 18.0268 51.6094 18.1562 51.6094H25.6562C25.7857 51.6094 25.8906 51.5044 25.8906 51.375V27C25.8906 26.8706 25.7857 26.7656 25.6562 26.7656H18.1562Z" fill="#708D86"/>
<path d="M30.3438 26.7656C30.2143 26.7656 30.1094 26.8706 30.1094 27V51.375C30.1094 51.5044 30.2143 51.6094 30.3438 51.6094H37.8438C37.9732 51.6094 38.0781 51.5044 38.0781 51.375V38.25C38.0781 37.3176 38.4485 36.4234 39.1078 35.7641C39.7671 35.1048 40.6613 34.7344 41.5938 34.7344C42.5262 34.7344 43.4204 35.1048 44.0797 35.7641C44.739 36.4234 45.1094 37.3176 45.1094 38.25V51.375C45.1094 51.5044 45.2143 51.6094 45.3438 51.6094H52.8438C52.9732 51.6094 53.0781 51.5044 53.0781 51.375V35.213C53.0781 30.6628 49.1207 27.1031 44.5935 27.5147C43.1972 27.6416 41.8168 27.9887 40.5278 28.5411L38.0781 29.591V27C38.0781 26.8706 37.9732 26.7656 37.8438 26.7656H30.3438Z" fill="#708D86"/>
</svg>
