<svg width="100" height="25" viewBox="0 0 100 25" fill="none" xmlns="http://www.w3.org/2000/svg">
<path d="M9 20.13L13.2 7.38H17.67L11.52 24H6.42L0.3 7.38H4.8L9 20.13ZM22.159 5.4C21.419 5.4 20.799 5.17 20.299 4.71C19.819 4.23 19.579 3.64 19.579 2.94C19.579 2.24 19.819 1.66 20.299 1.2C20.799 0.719999 21.419 0.479999 22.159 0.479999C22.899 0.479999 23.509 0.719999 23.989 1.2C24.489 1.66 24.739 2.24 24.739 2.94C24.739 3.64 24.489 4.23 23.989 4.71C23.509 5.17 22.899 5.4 22.159 5.4ZM24.229 7.38V24H20.029V7.38H24.229ZM35.3086 20.13L39.5086 7.38H43.9786L37.8286 24H32.7286L26.6086 7.38H31.1086L35.3086 20.13ZM48.4676 5.4C47.7276 5.4 47.1076 5.17 46.6076 4.71C46.1276 4.23 45.8876 3.64 45.8876 2.94C45.8876 2.24 46.1276 1.66 46.6076 1.2C47.1076 0.719999 47.7276 0.479999 48.4676 0.479999C49.2076 0.479999 49.8176 0.719999 50.2976 1.2C50.7976 1.66 51.0476 2.24 51.0476 2.94C51.0476 3.64 50.7976 4.23 50.2976 4.71C49.8176 5.17 49.2076 5.4 48.4676 5.4ZM50.5376 7.38V24H46.3376V7.38H50.5376ZM53.6072 15.63C53.6072 13.95 53.9372 12.46 54.5972 11.16C55.2772 9.86 56.1872 8.86 57.3272 8.16C58.4872 7.46 59.7772 7.11 61.1972 7.11C62.4372 7.11 63.5172 7.36 64.4372 7.86C65.3772 8.36 66.1272 8.99 66.6872 9.75V7.38H70.9172V24H66.6872V21.57C66.1472 22.35 65.3972 23 64.4372 23.52C63.4972 24.02 62.4072 24.27 61.1672 24.27C59.7672 24.27 58.4872 23.91 57.3272 23.19C56.1872 22.47 55.2772 21.46 54.5972 20.16C53.9372 18.84 53.6072 17.33 53.6072 15.63ZM66.6872 15.69C66.6872 14.67 66.4872 13.8 66.0872 13.08C65.6872 12.34 65.1472 11.78 64.4672 11.4C63.7872 11 63.0572 10.8 62.2772 10.8C61.4972 10.8 60.7772 10.99 60.1172 11.37C59.4572 11.75 58.9172 12.31 58.4972 13.05C58.0972 13.77 57.8972 14.63 57.8972 15.63C57.8972 16.63 58.0972 17.51 58.4972 18.27C58.9172 19.01 59.4572 19.58 60.1172 19.98C60.7972 20.38 61.5172 20.58 62.2772 20.58C63.0572 20.58 63.7872 20.39 64.4672 20.01C65.1472 19.61 65.6872 19.05 66.0872 18.33C66.4872 17.59 66.6872 16.71 66.6872 15.69ZM84.2292 7.14C86.2092 7.14 87.8092 7.77 89.0292 9.03C90.2492 10.27 90.8592 12.01 90.8592 14.25V24H86.6592V14.82C86.6592 13.5 86.3292 12.49 85.6692 11.79C85.0092 11.07 84.1092 10.71 82.9692 10.71C81.8092 10.71 80.8892 11.07 80.2092 11.79C79.5492 12.49 79.2192 13.5 79.2192 14.82V24H75.0192V7.38H79.2192V9.45C79.7792 8.73 80.4892 8.17 81.3492 7.77C82.2292 7.35 83.1892 7.14 84.2292 7.14ZM96.7132 24.21C95.9532 24.21 95.3232 23.98 94.8232 23.52C94.3432 23.04 94.1032 22.45 94.1032 21.75C94.1032 21.05 94.3432 20.47 94.8232 20.01C95.3232 19.53 95.9532 19.29 96.7132 19.29C97.4532 19.29 98.0632 19.53 98.5432 20.01C99.0232 20.47 99.2632 21.05 99.2632 21.75C99.2632 22.45 99.0232 23.04 98.5432 23.52C98.0632 23.98 97.4532 24.21 96.7132 24.21Z" fill="black"/>
</svg>
