<svg width="70" height="70" viewBox="0 0 70 70" fill="none" xmlns="http://www.w3.org/2000/svg">
<circle cx="35" cy="35" r="35" fill="#E2F4F0"/>
<path fill-rule="evenodd" clip-rule="evenodd" d="M20.3125 17.6875C19.3805 17.6875 18.625 18.443 18.625 19.375V45.9883C18.625 46.9203 19.3805 47.6758 20.3125 47.6758H28.0291V53.3563C28.0291 54.5256 29.4429 55.1112 30.2697 54.2844L36.8782 47.6758H45.5834C46.0309 47.6758 46.4601 47.4981 46.7766 47.1816L51.8807 42.0775C52.1972 41.761 52.375 41.3318 52.375 40.8842V19.375C52.375 18.443 51.6195 17.6875 50.6875 17.6875H20.3125ZM34.0355 27.4375C34.0355 26.6609 33.4059 26.0313 32.6292 26.0313C31.8526 26.0313 31.223 26.6609 31.223 27.4375V35.4476C31.223 36.2243 31.8526 36.8539 32.6292 36.8539C33.4059 36.8539 34.0355 36.2243 34.0355 35.4476V27.4375ZM43.4396 27.4375C43.4396 26.6609 42.81 26.0313 42.0334 26.0313C41.2567 26.0313 40.6271 26.6609 40.6271 27.4375V35.4476C40.6271 36.2243 41.2567 36.8539 42.0334 36.8539C42.81 36.8539 43.4396 36.2243 43.4396 35.4476V27.4375Z" fill="#708D86"/>
</svg>
